<svg width="23" height="24" viewBox="0 0 23 24" fill="none" xmlns="http://www.w3.org/2000/svg">
<path d="M22.2512 20.1642C17.8411 24.4871 12.0587 24.0172 8.57467 20.5944L2.73938 14.8649C-0.53858 11.6462 -1.42729 5.9592 3.17748 1.43411C4.14154 0.487458 5.82325 0.487458 6.78856 1.43411L8.63589 3.24928C9.63081 4.22682 9.63081 5.81639 8.63589 6.79397L7.13994 8.2629C6.15451 9.22821 6.12959 10.819 7.13994 11.8076L11.6871 16.2733C12.6827 17.2508 14.3015 17.2508 15.297 16.2733L16.793 14.8043C17.7885 13.8268 19.4073 13.8268 20.4028 14.8043L22.2514 16.6195C23.2498 17.6 23.2492 19.1848 22.2514 20.1642L22.2512 20.1642Z" fill="#646060"/>
</svg>
