<svg width="26" height="16" viewBox="0 0 26 16" fill="none" xmlns="http://www.w3.org/2000/svg">
<path d="M25.9327 11.5781C25.3241 9.9989 24.445 8.54422 23.3367 7.28263L24.5873 6.00007H24.5875C24.916 5.66324 25.0442 5.17242 24.924 4.71236C24.8037 4.25232 24.4532 3.89294 24.0047 3.76951C23.5561 3.6463 23.0774 3.77777 22.749 4.1146L21.4381 5.45899C19.368 3.85746 16.886 2.91192 14.2981 2.73912V1.33331C14.2981 0.856971 14.0504 0.416797 13.6482 0.178627C13.246 -0.0595425 12.7502 -0.0595425 12.3479 0.178627C11.9457 0.416797 11.698 0.856966 11.698 1.33331V2.73912C9.1101 2.91189 6.62817 3.8574 4.55806 5.45899L3.24714 4.1146C2.9187 3.77777 2.44009 3.6463 1.99149 3.76973C1.5429 3.89294 1.19247 4.25232 1.07233 4.71236C0.951967 5.1724 1.08017 5.66326 1.40861 6.00006L2.65925 7.28263H2.65947C1.55114 8.54422 0.672048 9.99889 0.0634747 11.5781C-0.078873 12.0281 0.0219029 12.5221 0.328579 12.8757C0.635039 13.2292 1.10147 13.3897 1.55397 13.2973C2.00648 13.2049 2.37735 12.8734 2.52862 12.4266C3.34241 10.2777 4.78679 8.44135 6.66237 7.17079C8.53769 5.90006 10.7517 5.25806 12.9983 5.33332C15.2441 5.25787 17.4572 5.89938 19.3325 7.16902C21.2074 8.4389 22.652 10.2741 23.4663 12.4219C23.6132 12.8739 23.9841 13.211 24.4392 13.3065C24.8943 13.4018 25.3647 13.2411 25.6727 12.8846C25.9809 12.5281 26.0801 12.0301 25.9332 11.5781H25.9327ZM12.9978 8.00005C11.9634 8.00005 10.9713 8.42148 10.2399 9.1717C9.50839 9.9217 9.09745 10.9391 9.09745 12C9.09745 13.0609 9.50839 14.0784 10.2399 14.8284C10.9713 15.5786 11.9634 16 12.9978 16C14.0323 16 15.0244 15.5786 15.7558 14.8284C16.4873 14.0784 16.8982 13.0609 16.8982 12C16.8972 10.9395 16.4858 9.92278 15.7547 9.17279C15.0234 8.42302 14.032 8.00114 12.9978 8.00005ZM12.9978 13.3333C12.6531 13.3333 12.3222 13.1929 12.0785 12.9429C11.8347 12.6929 11.6978 12.3536 11.6978 12C11.6978 11.6464 11.8347 11.3072 12.0785 11.0572C12.3222 10.8072 12.6531 10.6668 12.9978 10.6668C13.3426 10.6668 13.6735 10.8072 13.9172 11.0572C14.161 11.3072 14.2979 11.6464 14.2979 12C14.2975 12.3536 14.1603 12.6924 13.9168 12.9424C13.673 13.1922 13.3426 13.3328 12.9979 13.3333L12.9978 13.3333Z" fill="#646060"/>
</svg>
