<svg xmlns="http://www.w3.org/2000/svg" xmlns:xlink="http://www.w3.org/1999/xlink" version="1.1" x="0px" y="0px" viewBox="0 0 100 125" enable-background="new 0 0 100 100" xml:space="preserve"><path d="M87.722,52.746c4.532-3.547,7.271-6.406,7.571-6.723c0.965-1.024,0.918-2.636-0.104-3.602  c-0.866-0.816-2.149-0.9-3.11-0.291c-0.032,0.021-0.069,0.035-0.102,0.058c-0.004,0.002-0.008,0.007-0.012,0.01  c-0.133,0.094-0.261,0.203-0.378,0.326c-0.191,0.202-19.407,20.233-42.462,20.233c-1.441,0-2.867-0.079-4.274-0.225  c-21.11-2.201-38.008-19.82-38.188-20.009c-0.483-0.51-1.128-0.777-1.781-0.795c-0.652-0.019-1.311,0.211-1.822,0.693  c-1.022,0.965-1.069,2.577-0.104,3.6c0.299,0.316,3.039,3.175,7.571,6.723l-6.981,7.239c-0.977,1.013-0.948,2.625,0.065,3.603  c0.495,0.477,1.131,0.713,1.768,0.713c0.668,0,1.334-0.261,1.834-0.778l7.454-7.73c3.317,2.294,7.229,4.649,11.601,6.667  l-3.876,8.899c-0.562,1.29,0.028,2.792,1.318,3.353c0.331,0.145,0.676,0.214,1.016,0.214c0.983,0,1.919-0.572,2.337-1.532  l3.909-8.974c0.47,0.174,0.946,0.34,1.425,0.503c4.424,1.518,9.186,2.583,14.182,2.857v9.178c0,1.407,1.14,2.548,2.547,2.548  s2.548-1.141,2.548-2.548v-9.178c2.27-0.125,4.495-0.408,6.659-0.827c3.114-0.602,6.103-1.48,8.944-2.533l3.909,8.974  c0.418,0.96,1.354,1.532,2.337,1.532c0.34,0,0.686-0.069,1.016-0.214c1.291-0.562,1.881-2.062,1.318-3.353l-3.877-8.899  c4.372-2.018,8.283-4.373,11.601-6.667l7.452,7.73c0.501,0.518,1.167,0.778,1.834,0.778c0.638,0,1.274-0.236,1.769-0.713  c1.014-0.977,1.042-2.59,0.065-3.603L87.722,52.746z"/><text x="0" y="115" fill="#000000" font-size="5px" font-weight="bold" font-family="'Helvetica Neue', Helvetica, Arial-Unicode, Arial, Sans-serif">Created by Andrey Vasiliev</text><text x="0" y="120" fill="#000000" font-size="5px" font-weight="bold" font-family="'Helvetica Neue', Helvetica, Arial-Unicode, Arial, Sans-serif">from the Noun Project</text></svg>