<svg width="23" height="18" viewBox="0 0 23 18" fill="none" xmlns="http://www.w3.org/2000/svg">
<path d="M1.02797 1.16315C1.44492 0.854045 1.94769 0.68693 2.4642 0.685791H20.5356C21.041 0.686163 21.5336 0.845465 21.9462 1.14173L12.1806 7.65618C11.9789 7.79073 11.7429 7.86274 11.5014 7.86312C11.2601 7.86331 11.0238 7.79222 10.8217 7.65823L1.02797 1.16315ZM13.0828 9.04967C12.6138 9.36268 12.065 9.52998 11.5037 9.53094C10.9425 9.53168 10.3931 9.36624 9.92338 9.05452L0.0953419 2.53627C0.0350162 2.74805 0.00292898 2.9669 0 3.18724V14.8593C0.000733418 15.5224 0.260548 16.1583 0.722622 16.627C1.18449 17.096 1.81104 17.3597 2.46429 17.3605H20.5357C21.189 17.3597 21.8155 17.096 22.2774 16.627C22.7394 16.1583 22.9993 15.5223 23 14.8593V3.18724C22.9967 2.95554 22.9613 2.72534 22.8948 2.50349L13.0828 9.04967Z" fill="#646060"/>
</svg>
