<svg width="26" height="17" viewBox="0 0 26 17" fill="none" xmlns="http://www.w3.org/2000/svg">
<path d="M25.9327 11.7267C25.3241 10.1777 24.445 8.75083 23.3367 7.51338L24.5873 6.25536H24.5875C24.916 5.92498 25.0442 5.44355 24.924 4.9923C24.8037 4.54106 24.4532 4.18856 24.0047 4.06749C23.5561 3.94664 23.0774 4.07559 22.749 4.40598L21.4381 5.72464C19.368 4.15376 16.886 3.22632 14.2981 3.05682V1.67791C14.2981 1.21069 14.0504 0.778938 13.6482 0.545326C13.246 0.311714 12.7502 0.311714 12.3479 0.545326C11.9457 0.778938 11.698 1.21068 11.698 1.67791V3.05682C9.1101 3.22628 6.62817 4.1537 4.55806 5.72464L3.24714 4.40598C2.9187 4.0756 2.44009 3.94664 1.99149 4.06771C1.5429 4.18856 1.19247 4.54106 1.07233 4.9923C0.951967 5.44353 1.08017 5.92501 1.40861 6.25536L2.65925 7.51338H2.65947C1.55114 8.75083 0.672048 10.1777 0.0634747 11.7267C-0.078873 12.1681 0.0219029 12.6526 0.328579 12.9994C0.635039 13.3462 1.10147 13.5036 1.55397 13.413C2.00648 13.3223 2.37735 12.9972 2.52862 12.5589C3.34241 10.4512 4.78679 8.64993 6.66237 7.40368C8.53769 6.15727 10.7517 5.52756 12.9983 5.60137C15.2441 5.52737 17.4572 6.15661 19.3325 7.40195C21.2074 8.64752 22.652 10.4476 23.4663 12.5543C23.6132 12.9977 23.9841 13.3283 24.4392 13.4219C24.8943 13.5154 25.3647 13.3578 25.6727 13.0081C25.9809 12.6585 26.0801 12.17 25.9332 11.7267H25.9327ZM12.9978 8.21708C11.9634 8.21708 10.9713 8.63044 10.2399 9.36631C9.50839 10.1019 9.09745 11.0999 9.09745 12.1405C9.09745 13.1811 9.50839 14.1791 10.2399 14.9147C10.9713 15.6506 11.9634 16.0639 12.9978 16.0639C14.0323 16.0639 15.0244 15.6506 15.7558 14.9147C16.4873 14.1791 16.8982 13.1811 16.8982 12.1405C16.8972 11.1003 16.4858 10.103 15.7547 9.36737C15.0234 8.63195 14.032 8.21814 12.9978 8.21708ZM12.9978 13.4482C12.6531 13.4482 12.3222 13.3105 12.0785 13.0653C11.8347 12.8201 11.6978 12.4873 11.6978 12.1405C11.6978 11.7937 11.8347 11.4609 12.0785 11.2157C12.3222 10.9705 12.6531 10.8328 12.9978 10.8328C13.3426 10.8328 13.6735 10.9705 13.9172 11.2157C14.161 11.4609 14.2979 11.7937 14.2979 12.1405C14.2975 12.4873 14.1603 12.8197 13.9168 13.0649C13.673 13.3099 13.3426 13.4478 12.9979 13.4482L12.9978 13.4482Z" fill="#646060"/>
</svg>
